<?xml version="1.0" encoding="UTF-8" standalone="no"?>
<!-- Created with Inkscape (http://www.inkscape.org/) -->

<svg
   version="1.1"
   id="svg2"
   width="194.54668"
   height="197.08"
   viewBox="0 0 194.54668 197.08"
   sodipodi:docname="logo.eps"
   xmlns:inkscape="http://www.inkscape.org/namespaces/inkscape"
   xmlns:sodipodi="http://sodipodi.sourceforge.net/DTD/sodipodi-0.dtd"
   xmlns="http://www.w3.org/2000/svg"
   xmlns:svg="http://www.w3.org/2000/svg">
  <defs
     id="defs6">
    <clipPath
       clipPathUnits="userSpaceOnUse"
       id="clipPath18">
      <path
         d="m 1139.49,511.449 c 8.14,-41.847 -13.16,-69.25 -38.36,-86.609 -30.23,-20.578 -71.42,-12.75 -92,17.488 -0.34,0.5 -0.67,1.004 -1,1.512 l -69.61,107.902 93,32.692 c 6.02,1.543 9.65,7.683 8.11,13.707 -0.64,2.461 -2.08,4.636 -4.11,6.172 L 847.73,724.672 c 46.403,51.023 87.848,106.344 123.778,165.211 33.572,54.883 61.212,113.177 82.442,173.907 z"
         id="path16" />
    </clipPath>
    <linearGradient
       x1="0"
       y1="0"
       x2="1"
       y2="0"
       gradientUnits="userSpaceOnUse"
       gradientTransform="matrix(178.46,-253.669,114.473,395.463,1001.85,795.249)"
       spreadMethod="pad"
       id="linearGradient24">
      <stop
         style="stop-opacity:1;stop-color:#5ac7c2"
         offset="0"
         id="stop20" />
      <stop
         style="stop-opacity:1;stop-color:#2d719d"
         offset="1"
         id="stop22" />
    </linearGradient>
    <clipPath
       clipPathUnits="userSpaceOnUse"
       id="clipPath34">
      <path
         d="m 1034.56,1188.72 19.37,-125 C 1008.61,938.008 938.484,822.688 847.723,724.609 L 726.621,802.23 c -7.879,4.465 -17.887,1.7 -22.355,-6.183 -1.625,-2.867 -2.348,-6.16 -2.075,-9.445 l 24.692,-178.004 c -102.332,-85.43 -217,-154.879 -340.113,-205.996 -46.415,14.527 -75.231,60.82 -67.79,108.878 l 71,458.051 c 136.622,-13.004 293.329,15 444.161,88.159 72.203,34.81 139.574,78.85 200.419,131.03 z"
         id="path32" />
    </clipPath>
    <linearGradient
       x1="0"
       y1="0"
       x2="1"
       y2="0"
       gradientUnits="userSpaceOnUse"
       gradientTransform="matrix(198.752,-255.489,239.238,212.253,623.858,892.979)"
       spreadMethod="pad"
       id="linearGradient40">
      <stop
         style="stop-opacity:1;stop-color:#f89a32"
         offset="0"
         id="stop36" />
      <stop
         style="stop-opacity:1;stop-color:#ed2724"
         offset="1"
         id="stop38" />
    </linearGradient>
    <clipPath
       clipPathUnits="userSpaceOnUse"
       id="clipPath50">
      <path
         d="M 0,0 H 1459 V 1478 H 0 Z"
         id="path48" />
    </clipPath>
    <clipPath
       clipPathUnits="userSpaceOnUse"
       id="clipPath56">
      <path
         d="m 608.211,1234.99 h 242.07 c -1.187,24.58 -4.797,48.98 -10.781,72.85 -6.289,26.01 -16.336,50.96 -29.809,74.08 -10.093,17.72 -23.707,33.2 -40,45.47 -23.718,18.71 -57.171,18.71 -80.89,0 -16.289,-12.27 -29.903,-27.75 -40,-45.47 -13.481,-23.12 -23.52,-48.07 -29.809,-74.08 -5.988,-23.87 -9.597,-48.27 -10.781,-72.85 z m 425.529,-40.94 0.83,-5.34 C 973.711,1136.52 906.32,1092.46 834.102,1057.65 683.27,984.48 526.57,956.48 389.949,969.488 l 34.801,224.562 c 3.652,23.56 23.938,40.94 47.777,40.94 h 99.004 c 6.391,136 74.578,243.13 157.758,243.13 83.18,0 151.371,-107.08 157.762,-243.13 h 99 c 23.809,-0.05 44.039,-17.42 47.689,-40.94 z"
         id="path54" />
    </clipPath>
    <linearGradient
       x1="0"
       y1="0"
       x2="1"
       y2="0"
       gradientUnits="userSpaceOnUse"
       gradientTransform="matrix(50.2804,-292.698,368.723,39.9133,678.747,1274.46)"
       spreadMethod="pad"
       id="linearGradient62">
      <stop
         style="stop-opacity:1;stop-color:#ec0980"
         offset="0"
         id="stop58" />
      <stop
         style="stop-opacity:1;stop-color:#57143f"
         offset="1"
         id="stop60" />
    </linearGradient>
    <clipPath
       clipPathUnits="userSpaceOnUse"
       id="clipPath72">
      <path
         d="m 869.891,444.391 c 8.984,-13.922 4.984,-32.493 -8.938,-41.469 -4.851,-3.133 -10.5,-4.801 -16.273,-4.801 H 416.09 c -9.949,-0.012 -19.84,1.488 -29.34,4.438 123.113,51.121 237.781,120.574 340.109,206.004 L 752.578,423.18 c 1.332,-6.071 7.332,-9.91 13.402,-8.578 2.477,0.546 4.696,1.91 6.301,3.867 l 68.649,70.785 29,-44.883 z"
         id="path70" />
    </clipPath>
    <linearGradient
       x1="0"
       y1="0"
       x2="1"
       y2="0"
       gradientUnits="userSpaceOnUse"
       gradientTransform="matrix(-719.709,-945.095,2191.33,-310.402,1271.45,1251.66)"
       spreadMethod="pad"
       id="linearGradient78">
      <stop
         style="stop-opacity:1;stop-color:#5ac7c2"
         offset="0"
         id="stop74" />
      <stop
         style="stop-opacity:1;stop-color:#2d719d"
         offset="1"
         id="stop76" />
    </linearGradient>
    <clipPath
       clipPathUnits="userSpaceOnUse"
       id="clipPath94">
      <path
         d="m 389.941,969.5 21.789,-1.211 c 1.821,-0.078 3.629,-0.269 5.438,-0.269 l 5.453,-0.118 10.899,-0.242 5.449,-0.121 2.73,-0.059 c 0.91,0 1.821,0 2.731,0 l 10.898,0.161 10.899,0.16 2.73,0.051 2.719,0.14 5.453,0.278 10.879,0.519 c 3.629,0.203 7.258,0.262 10.879,0.621 l 21.711,1.789 c 0.91,0.082 1.808,0.141 2.711,0.231 l 2.699,0.32 5.41,0.629 10.82,1.23 5.41,0.621 2.711,0.309 2.692,0.402 10.769,1.61 c 14.379,1.937 28.621,4.808 42.899,7.359 l 21.281,4.59 5.32,1.148 c 1.77,0.372 3.52,0.864 5.282,1.293 l 10.546,2.649 c 14.122,3.332 28.004,7.52 42,11.42 l 20.731,6.59 5.18,1.65 c 0.863,0.28 1.73,0.54 2.589,0.83 l 2.571,0.91 10.25,3.63 10.269,3.6 5.129,1.8 5.071,2 20.3,7.86 c 3.41,1.26 6.711,2.76 10.059,4.16 l 10,4.25 10,4.25 c 1.68,0.68 3.301,1.51 5,2.24 l 4.949,2.27 19.781,9.09 c 6.512,3.21 13.071,6.31 19.512,9.65 13,6.53 25.731,13.43 38.422,20.49 12.687,7.06 25.117,14.57 37.488,22.17 12.371,7.6 24.481,15.63 36.5,23.81 12.02,8.18 23.813,16.68 35.431,25.41 5.76,4.44 11.57,8.81 17.23,13.38 5.66,4.58 11.36,9.09 17,13.68 -5.46,-4.82 -10.87,-9.69 -16.44,-14.38 -5.57,-4.69 -11.2,-9.3 -16.83,-13.92 -11.375,-9.1 -22.949,-17.96 -34.723,-26.55 -11.844,-8.5 -23.871,-16.74 -36.078,-24.73 -3,-2 -6.141,-3.93 -9.223,-5.89 l -4.617,-2.92 -4.66,-2.85 -9.351,-5.69 -9.43,-5.55 c -3.129,-1.87 -6.32,-3.64 -9.488,-5.45 -3.172,-1.81 -6.332,-3.63 -9.543,-5.36 l -9.618,-5.22 c -3.211,-1.73 -6.461,-3.38 -9.691,-5.08 -6.449,-3.42 -13,-6.6 -19.52,-9.9 l -19.8,-9.33 c -3.309,-1.53 -6.578,-3.15 -9.918,-4.61 l -10.063,-4.31 -10.058,-4.31 c -3.36,-1.42 -6.68,-2.94 -10.098,-4.22 l -20.391,-8 -5.101,-2 -5.16,-1.83 -10.321,-3.65 -10.328,-3.62 -2.582,-0.91 c -0.859,-0.29 -1.738,-0.56 -2.609,-0.83 l -5.231,-1.65 -20.886,-6.568 -21.09,-5.89 -5.274,-1.469 c -0.879,-0.242 -1.75,-0.5 -2.636,-0.723 l -2.661,-0.648 -10.64,-2.57 -10.649,-2.559 c -1.781,-0.41 -3.543,-0.883 -5.332,-1.242 l -5.359,-1.098 -21.441,-4.41 c -14.387,-2.461 -28.75,-5.121 -43.25,-6.832 l -10.848,-1.449 -2.711,-0.36 -2.731,-0.269 -5.449,-0.531 -10.89,-1.071 -5.438,-0.519 -2.719,-0.262 c -0.91,-0.078 -1.82,-0.117 -2.73,-0.18 l -21.852,-1.308 c -3.629,-0.278 -7.289,-0.258 -10.929,-0.379 l -10.93,-0.262 -5.473,-0.109 -2.726,-0.059 h -2.731 l -10.929,0.18 -10.93,0.18 c -0.91,0 -1.82,0 -2.731,0.058 l -2.73,0.152 -5.457,0.29 -10.91,0.578 c -3.641,0.203 -7.274,0.343 -10.903,0.742 l -21.738,2.097 z"
         id="path92" />
    </clipPath>
    <radialGradient
       fx="0"
       fy="0"
       cx="0"
       cy="0"
       r="1"
       gradientUnits="userSpaceOnUse"
       gradientTransform="matrix(322.64,0,0,322.395,712.275,1076.97)"
       spreadMethod="pad"
       id="radialGradient100">
      <stop
         style="stop-opacity:1;stop-color:#ffffff"
         offset="0"
         id="stop96" />
      <stop
         style="stop-opacity:1;stop-color:#f89a32"
         offset="1"
         id="stop98" />
    </radialGradient>
    <clipPath
       clipPathUnits="userSpaceOnUse"
       id="clipPath110">
      <path
         d="m 386.75,402.559 22.73,10.281 c 7.547,3.488 15.067,7.031 22.559,10.64 14.988,7.18 29.852,14.598 44.602,22.258 14.726,7.692 29.367,15.524 43.828,23.692 14.461,8.172 28.851,16.468 43,25.101 14.152,8.629 28.281,17.418 42.191,26.496 13.91,9.082 27.66,18.379 41.301,27.871 13.641,9.493 27.078,19.262 40.379,29.223 l 10,7.481 9.898,7.582 19.633,15.39 -9.402,-8.222 -9.528,-8.059 -9.613,-8 -9.687,-7.871 c -13.02,-10.379 -26.262,-20.473 -39.723,-30.281 -13.438,-9.828 -27.168,-19.282 -41,-28.532 -13.828,-9.25 -28,-18.109 -42.188,-26.769 -14.191,-8.66 -28.691,-17 -43.281,-25 -14.59,-8 -29.351,-15.77 -44.289,-23.129 -14.937,-7.359 -30,-14.461 -45.23,-21.191 -7.621,-3.329 -15.285,-6.59 -23,-9.79 l -11.559,-4.718 -11.633,-4.532 z"
         id="path108" />
    </clipPath>
    <radialGradient
       fx="0"
       fy="0"
       cx="0"
       cy="0"
       r="1"
       gradientUnits="userSpaceOnUse"
       gradientTransform="matrix(481.287,0,0,481.217,673.214,558.493)"
       spreadMethod="pad"
       id="radialGradient116">
      <stop
         style="stop-opacity:1;stop-color:#ffffff"
         offset="0"
         id="stop112" />
      <stop
         style="stop-opacity:1;stop-color:#2d719d"
         offset="1"
         id="stop114" />
    </radialGradient>
    <clipPath
       clipPathUnits="userSpaceOnUse"
       id="clipPath126">
      <path
         d="m 847.699,724.641 c 5.403,6.339 10.778,12.695 16.133,19.07 5.352,6.371 10.606,12.82 15.77,19.352 10.418,12.964 20.578,26.125 30.48,39.48 9.871,13.367 19.551,26.887 28.848,40.656 9.3,13.774 18.39,27.684 27.082,41.844 8.687,14.156 17.117,28.469 25.172,43 8.05,14.527 15.726,29.258 23.116,44.156 7.39,14.903 14.33,30.001 20.92,45.261 3.34,7.62 6.55,15.29 9.65,23 3.1,7.72 6.1,15.47 9,23.27 l -3.87,-11.88 c -1.37,-3.93 -2.71,-7.88 -4.12,-11.8 -2.82,-7.84 -5.73,-15.65 -8.77,-23.41 -6.14,-15.49 -12.75,-30.792 -19.85,-45.906 -7.06,-15.113 -14.67,-30 -22.58,-44.66 -7.91,-14.66 -16.36,-29.09 -25.078,-43.301 -8.723,-14.207 -17.903,-28.16 -27.391,-41.878 -9.492,-13.719 -19.32,-27.2 -29.531,-40.379 -10.207,-13.18 -20.7,-26.141 -31.532,-38.813 -5.437,-6.312 -10.941,-12.562 -16.519,-18.75 l -8.41,-9.238 -8.571,-9.09 z"
         id="path124" />
    </clipPath>
    <radialGradient
       fx="0"
       fy="0"
       cx="0"
       cy="0"
       r="1"
       gradientUnits="userSpaceOnUse"
       gradientTransform="matrix(450.911,0,0,451.013,945.676,856.537)"
       spreadMethod="pad"
       id="radialGradient132">
      <stop
         style="stop-opacity:1;stop-color:#ffffff"
         offset="0"
         id="stop128" />
      <stop
         style="stop-opacity:1;stop-color:#2d719d"
         offset="1"
         id="stop130" />
    </radialGradient>
  </defs>
  <sodipodi:namedview
     id="namedview4"
     pagecolor="#ffffff"
     bordercolor="#000000"
     borderopacity="0.25"
     inkscape:showpageshadow="2"
     inkscape:pageopacity="0.0"
     inkscape:pagecheckerboard="0"
     inkscape:deskcolor="#d1d1d1" />
  <g
     id="g8"
     inkscape:groupmode="layer"
     inkscape:label="ink_ext_XXXXXX"
     transform="matrix(1.3333333,0,0,-1.3333333,0,197.08)">
    <g
       id="g10"
       transform="scale(0.1)">
      <g
         id="g12">
        <g
           id="g14"
           clip-path="url(#clipPath18)">
          <path
             d="m 1139.49,511.449 c 8.14,-41.847 -13.16,-69.25 -38.36,-86.609 -30.23,-20.578 -71.42,-12.75 -92,17.488 -0.34,0.5 -0.67,1.004 -1,1.512 l -69.61,107.902 93,32.692 c 6.02,1.543 9.65,7.683 8.11,13.707 -0.64,2.461 -2.08,4.636 -4.11,6.172 L 847.73,724.672 c 46.403,51.023 87.848,106.344 123.778,165.211 33.572,54.883 61.212,113.177 82.442,173.907 l 85.54,-552.341"
             style="fill:url(#linearGradient24);fill-opacity:1;fill-rule:nonzero;stroke:none"
             id="path26" />
        </g>
      </g>
      <g
         id="g28">
        <g
           id="g30"
           clip-path="url(#clipPath34)">
          <path
             d="m 1034.56,1188.72 19.37,-125 C 1008.61,938.008 938.484,822.688 847.723,724.609 L 726.621,802.23 c -7.879,4.465 -17.887,1.7 -22.355,-6.183 -1.625,-2.867 -2.348,-6.16 -2.075,-9.445 l 24.692,-178.004 c -102.332,-85.43 -217,-154.879 -340.113,-205.996 -46.415,14.527 -75.231,60.82 -67.79,108.878 l 71,458.051 c 136.622,-13.004 293.329,15 444.161,88.159 72.203,34.81 139.574,78.85 200.419,131.03"
             style="fill:url(#linearGradient40);fill-opacity:1;fill-rule:nonzero;stroke:none"
             id="path42" />
        </g>
      </g>
      <g
         id="g44">
        <g
           id="g46"
           clip-path="url(#clipPath50)">
          <g
             id="g52"
             clip-path="url(#clipPath56)">
            <path
               d="m 431,966 v 1 h -23 v 1 h -13 v 1 h -6 v 1 h 1 v 7 h 1 v 6 h 1 v 7 h 1 v 6 h 1 v 7 h 1 v 6 h 1 v 6 h 1 v 7 h 1 v 6 h 1 v 7 h 1 v 6 h 1 v 7 h 1 v 6 h 1 v 7 h 1 v 6 h 1 v 7 h 1 v 6 h 1 v 6 h 1 v 7 h 1 v 6 h 1 v 7 h 1 v 6 h 1 v 7 h 1 v 6 h 1 v 7 h 1 v 6 h 1 v 7 h 1 v 6 h 1 v 6 h 1 v 7 h 1 v 6 h 1 v 7 h 1 v 6 h 1 v 7 h 1 v 6 h 1 v 4 h 1 v 3 h 1 v 3 h 1 v 2 h 1 v 2 h 1 v 2 h 1 v 1 h 1 v 2 h 1 v 1 h 1 v 2 h 1 v 1 h 1 v 1 h 1 v 1 h 1 v 1 h 1 v 1 h 1 v 1 h 1 v 1 h 2 v 1 h 1 v 1 h 2 v 1 h 1 v 1 h 2 v 1 h 2 v 1 h 2 v 1 h 2 v 1 h 4 v 1 h 4 v 1 h 108 v 9 h 1 v 11 h 1 v 10 h 1 v 7 h 1 v 8 h 1 v 6 h 1 v 5 h 1 v 6 h 1 v 5 h 1 v 5 h 1 v 4 h 1 v 4 h 1 v 4 h 1 v 3 h 1 v 4 h 1 v 4 h 1 v 3 h 1 v 3 h 1 v 3 h 1 v 3 h 1 v 3 h 1 v 4 h 1 v 3 h 1 v 2 h 1 v 3 h 1 v 2 h 1 v 3 h 1 v 2 h 1 v 2 h 1 v 3 h 1 v 2 h 1 v 3 h 1 v 2 h 1 v 2 h 1 v 2 h 1 v 2 h 1 v 2 h 1 v 2 h 1 v 2 h 1 v 2 h 1 v 2 h 1 v 1 h 1 v 2 h 1 v 2 h 1 v 2 h 1 v 1 h 1 v 2 h 1 v 2 h 1 v 1 h 1 v 2 h 1 v 2 h 1 v 1 h 1 v 1 h 1 v 2 h 1 v 1 h 1 v 2 h 1 v 1 h 1 v 2 h 1 v 1 h 1 v 1 h 1 v 2 h 1 v 1 h 1 v 1 h 1 v 1 h 1 v 2 h 1 v 1 h 1 v 1 h 1 v 1 h 1 v 1 h 1 v 1 h 1 v 2 h 1 v 1 h 1 v 1 h 1 v 1 h 1 v 1 h 1 v 1 h 1 v 1 h 1 v 1 h 1 v 1 h 1 v 1 h 1 v 1 h 1 v 1 h 1 v 1 h 1 v 1 h 1 v 1 h 2 v 1 h 1 v 1 h 1 v 1 h 1 v 1 h 2 v 1 h 1 v 1 h 1 v 1 h 2 v 1 h 1 v 1 h 1 v 1 h 2 v 1 h 1 v 1 h 2 v 1 h 2 v 1 h 1 v 1 h 2 v 1 h 2 v 1 h 2 v 1 h 1 v 1 h 3 v 1 h 2 v 1 h 2 v 1 h 3 v 1 h 2 v 1 h 3 v 1 h 3 v 1 h 5 v 1 h 4 v 1 h 4 v 1 h 30 v -1 h 5 v -1 h 4 v -1 h 4 v -1 h 4 v -1 h 2 v -1 h 3 v -1 h 2 v -1 h 3 v -1 h 2 v -1 h 2 v -1 h 2 v -1 h 2 v -1 h 1 v -1 h 2 v -1 h 2 v -1 h 2 v -1 h 1 v -1 h 2 v -1 h 1 v -1 h 2 v -1 h 1 v -1 h 1 v -1 h 2 v -1 h 1 v -1 h 1 v -1 h 1 v -1 h 2 v -1 h 1 v -1 h 1 v -1 h 1 v -1 h 1 v -1 h 1 v -1 h 1 v -1 h 1 v -1 h 1 v -1 h 1 v -1 h 2 v -1 h 1 v -1 h 1 v -1 h 1 v -2 h 1 v -1 h 1 v -1 h 1 v -1 h 1 v -1 h 1 v -1 h 1 v -2 h 1 v -1 h 1 v -1 h 1 v -1 h 1 v -1 h 1 v -1 h 1 v -2 h 1 v -1 h 1 v -2 h 1 v -1 h 1 v -1 h 1 v -2 h 1 v -1 h 1 v -2 h 1 v -1 h 1 v -2 h 1 v -1 h 1 v -2 h 1 v -1 h 1 v -2 h 1 v -2 h 1 v -1 h 1 v -2 h 1 v -2 h 1 v -2 h 1 v -1 h 1 v -2 h 1 v -2 h 1 v -2 h 1 v -2 h 1 v -2 h 1 v -2 h 1 v -2 h 1 v -2 h 1 v -2 h 1 v -2 h 1 v -3 h 1 v -2 h 1 v -3 h 1 v -2 h 1 v -3 h 1 v -2 h 1 v -2 h 1 v -3 h 1 v -3 h 1 v -3 h 1 v -3 h 1 v -3 h 1 v -3 h 1 v -3 h 1 v -3 h 1 v -3 h 1 v -4 h 1 v -4 h 1 v -4 h 1 v -4 h 1 v -4 h 1 v -4 h 1 v -5 h 1 v -6 h 1 v -5 h 1 v -5 h 1 v -8 h 1 v -7 h 1 v -7 h 1 v -11 h 1 v -14 h 1 v -2 h 108 v -1 h 4 v -1 h 3 v -1 h 2 v -1 h 2 v -1 h 3 v -1 h 1 v -1 h 2 v -1 h 1 v -1 h 2 v -1 h 1 v -1 h 1 v -1 h 1 v -1 h 1 v -1 h 1 v -1 h 1 v -1 h 1 v -1 h 1 v -1 h 1 v -2 h 1 v -1 h 1 v -2 h 1 v -1 h 1 v -2 h 1 v -2 h 1 v -3 h 1 v -2 h 1 v -4 h 1 v -5 h 1 v -5 h -1 v -1 h -1 v -1 h -1 v -1 h -1 v -1 h -1 v -1 h -2 v -1 h -1 v -1 h -1 v -1 h -1 v -1 h -1 v -1 h -2 v -1 h -1 v -1 h -1 v -1 h -1 v -1 h -2 v -1 h -1 v -1 h -1 v -1 h -1 v -1 h -2 v -1 h -1 v -1 h -1 v -1 h -2 v -1 h -1 v -1 h -1 v -1 h -1 v -1 h -2 v -1 h -1 v -1 h -1 v -1 h -1 v -1 h -2 v -1 h -1 v -1 h -1 v -1 h -2 v -1 h -1 v -1 h -1 v -1 h -1 v -1 h -2 v -1 h -1 v -1 h -1 v -1 h -2 v -1 h -1 v -1 h -2 v -1 h -1 v -1 h -1 v -1 h -2 v -1 h -1 v -1 h -2 v -1 h -1 v -1 h -2 v -1 h -1 v -1 h -1 v -1 h -2 v -1 h -1 v -1 h -2 v -1 h -1 v -1 h -2 v -1 h -1 v -1 h -1 v -1 h -2 v -1 h -1 v -1 h -2 v -1 h -1 v -1 h -2 v -1 h -1 v -1 h -1 v -1 h -2 v -1 h -1 v -1 h -2 v -1 h -1 v -1 h -2 v -1 h -1 v -1 h -1 v -1 h -2 v -1 h -2 v -1 h -1 v -1 h -2 v -1 h -2 v -1 h -1 v -1 h -2 v -1 h -2 v -1 h -1 v -1 h -2 v -1 h -1 v -1 h -2 v -1 h -2 v -1 h -1 v -1 h -2 v -1 h -2 v -1 h -1 v -1 h -2 v -1 h -2 v -1 h -1 v -1 h -2 v -1 h -2 v -1 h -1 v -1 h -2 v -1 h -1 v -1 h -2 v -1 h -2 v -1 h -1 v -1 h -2 v -1 h -2 v -1 h -1 v -1 h -2 v -1 h -2 v -1 h -2 v -1 h -2 v -1 h -2 v -1 h -1 v -1 h -2 v -1 h -2 v -1 h -2 v -1 h -2 v -1 h -2 v -1 h -2 v -1 h -1 v -1 h -2 v -1 h -2 v -1 h -2 v -1 h -2 v -1 h -2 v -1 h -2 v -1 h -1 v -1 h -2 v -1 h -2 v -1 h -2 v -1 h -2 v -1 h -2 v -1 h -3 v -1 h -2 v -1 h -2 v -1 h -2 v -1 h -2 v -1 h -2 v -1 h -2 v -1 h -2 v -1 h -2 v -1 h -2 v -1 h -2 v -1 h -3 v -1 h -2 v -1 h -2 v -1 h -3 v -1 h -2 v -1 h -2 v -1 h -3 v -1 h -2 v -1 h -2 v -1 h -2 v -1 h -3 v -1 h -2 v -1 h -2 v -1 h -3 v -1 h -2 v -1 h -2 v -1 h -3 v -1 h -2 v -1 h -3 v -1 h -2 v -1 h -3 v -1 h -3 v -1 h -3 v -1 h -2 v -1 h -3 v -1 h -3 v -1 h -2 v -1 h -3 v -1 h -3 v -1 h -2 v -1 h -3 v -1 h -3 v -1 h -3 v -1 h -2 v -1 h -3 v -1 h -3 v -1 h -2 v -1 h -3 v -1 h -3 v -1 h -3 v -1 h -4 v -1 h -3 v -1 h -3 v -1 h -4 v -1 h -3 v -1 h -3 v -1 h -4 v -1 h -3 v -1 h -3 v -1 h -4 v -1 h -3 v -1 h -3 v -1 h -4 v -1 h -3 v -1 h -3 v -1 h -4 v -1 h -4 v -1 h -5 v -1 h -4 v -1 h -4 v -1 h -5 v -1 h -4 v -1 h -5 v -1 h -4 v -1 h -4 v -1 h -5 v -1 h -4 v -1 h -5 v -1 h -4 v -1 h -7 v -1 h -6 v -1 h -6 v -1 h -7 v -1 h -6 v -1 h -6 v -1 h -7 v -1 h -6 v -1 h -8 v -1 h -11 v -1 h -11 v -1 h -12 v -1 h -11 v -1 h -33 v -1 z m 178,270 v -1 h 241 v 5 h -1 v 10 h -1 v 9 h -1 v 9 h -1 v 7 h -1 v 5 h -1 v 5 h -1 v 6 h -1 v 5 h -1 v 5 h -1 v 4 h -1 v 4 h -1 v 4 h -1 v 4 h -1 v 3 h -1 v 4 h -1 v 3 h -1 v 3 h -1 v 2 h -1 v 3 h -1 v 3 h -1 v 3 h -1 v 3 h -1 v 2 h -1 v 2 h -1 v 3 h -1 v 2 h -1 v 2 h -1 v 2 h -1 v 3 h -1 v 2 h -1 v 2 h -1 v 2 h -1 v 2 h -1 v 2 h -1 v 2 h -1 v 2 h -1 v 2 h -1 v 1 h -1 v 2 h -1 v 2 h -1 v 2 h -1 v 1 h -1 v 2 h -1 v 1 h -1 v 2 h -1 v 1 h -1 v 2 h -1 v 1 h -1 v 2 h -1 v 1 h -1 v 1 h -1 v 2 h -1 v 1 h -1 v 1 h -1 v 1 h -1 v 2 h -1 v 1 h -1 v 1 h -1 v 1 h -1 v 1 h -1 v 1 h -1 v 1 h -1 v 1 h -1 v 1 h -1 v 1 h -1 v 1 h -1 v 1 h -1 v 1 h -1 v 1 h -1 v 1 h -1 v 1 h -1 v 1 h -1 v 1 h -1 v 1 h -1 v 1 h -1 v 1 h -2 v 1 h -1 v 1 h -1 v 1 h -2 v 1 h -1 v 1 h -1 v 1 h -2 v 1 h -2 v 1 h -1 v 1 h -2 v 1 h -2 v 1 h -3 v 1 h -2 v 1 h -2 v 1 h -4 v 1 h -4 v 1 h -8 v 1 h -9 v -1 h -8 v -1 h -4 v -1 h -4 v -1 h -2 v -1 h -3 v -1 h -2 v -1 h -2 v -1 h -2 v -1 h -2 v -1 h -1 v -1 h -2 v -1 h -2 v -1 h -1 v -1 h -1 v -1 h -2 v -1 h -1 v -1 h -1 v -1 h -1 v -1 h -1 v -1 h -1 v -1 h -2 v -1 h -1 v -1 h -1 v -1 h -1 v -1 h -1 v -1 h -1 v -1 h -1 v -1 h -1 v -1 h -1 v -1 h -1 v -1 h -1 v -1 h -1 v -1 h -1 v -1 h -1 v -1 h -1 v -2 h -1 v -1 h -1 v -1 h -1 v -1 h -1 v -2 h -1 v -1 h -1 v -1 h -1 v -1 h -1 v -2 h -1 v -1 h -1 v -2 h -1 v -1 h -1 v -2 h -1 v -1 h -1 v -2 h -1 v -1 h -1 v -2 h -1 v -2 h -1 v -2 h -1 v -1 h -1 v -2 h -1 v -2 h -1 v -2 h -1 v -2 h -1 v -2 h -1 v -2 h -1 v -2 h -1 v -2 h -1 v -3 h -1 v -2 h -1 v -2 h -1 v -2 h -1 v -2 h -1 v -3 h -1 v -2 h -1 v -3 h -1 v -3 h -1 v -2 h -1 v -3 h -1 v -3 h -1 v -3 h -1 v -3 h -1 v -3 h -1 v -4 h -1 v -3 h -1 v -3 h -1 v -5 h -1 v -4 h -1 v -4 h -1 v -6 h -1 v -5 h -1 v -5 h -1 v -5 h -1 v -6 h -1 v -8 h -1 v -9 h -1 v -10 h -1 v -9"
               style="fill:url(#linearGradient62);fill-opacity:1;fill-rule:nonzero;stroke:none"
               id="path64" />
          </g>
        </g>
      </g>
      <g
         id="g66">
        <g
           id="g68"
           clip-path="url(#clipPath72)">
          <path
             d="m 869.891,444.391 c 8.984,-13.922 4.984,-32.493 -8.938,-41.469 -4.851,-3.133 -10.5,-4.801 -16.273,-4.801 H 416.09 c -9.949,-0.012 -19.84,1.488 -29.34,4.438 123.113,51.121 237.781,120.574 340.109,206.004 L 752.578,423.18 c 1.332,-6.071 7.332,-9.91 13.402,-8.578 2.477,0.546 4.696,1.91 6.301,3.867 l 68.649,70.785 29,-44.883 -0.039,0.02"
             style="fill:url(#linearGradient78);fill-opacity:1;fill-rule:nonzero;stroke:none"
             id="path80" />
        </g>
      </g>
      <path
         d="m 847.711,724.629 c 90.769,98.074 160.889,213.398 206.209,339.111 l -2.83,18.26 C 1009.56,958.57 929.176,841 828.094,737.16 l 19.617,-12.531"
         style="fill:#d02125;fill-opacity:1;fill-rule:nonzero;stroke:none"
         id="path82" />
      <path
         d="m 386.762,402.551 c 123.109,51.121 237.781,120.566 340.109,206 l -4.301,31 C 613.125,548.215 491.445,472.621 361.07,414.969 c 7.91,-5.367 16.567,-9.559 25.692,-12.418"
         style="fill:#d02125;fill-opacity:1;fill-rule:nonzero;stroke:none"
         id="path84" />
      <path
         d="m 393.891,994.949 -3.95,-25.461 c 99.707,-8.367 200.098,2.121 295.918,30.922 50.93,14.88 100.516,34.03 148.231,57.23 72.223,34.82 139.609,78.88 200.47,131.07 l -0.83,5.33 c -0.47,3.04 -1.23,6.03 -2.27,8.92 C 797.941,1006.93 536.289,981.16 393.891,994.949"
         style="fill:#5f1441;fill-opacity:1;fill-rule:nonzero;stroke:none"
         id="path86" />
      <g
         id="g88">
        <g
           id="g90"
           clip-path="url(#clipPath94)">
          <path
             d="m 389.941,969.5 21.789,-1.211 c 1.821,-0.078 3.629,-0.269 5.438,-0.269 l 5.453,-0.118 10.899,-0.242 5.449,-0.121 2.73,-0.059 c 0.91,0 1.821,0 2.731,0 l 10.898,0.161 10.899,0.16 2.73,0.051 2.719,0.14 5.453,0.278 10.879,0.519 c 3.629,0.203 7.258,0.262 10.879,0.621 l 21.711,1.789 c 0.91,0.082 1.808,0.141 2.711,0.231 l 2.699,0.32 5.41,0.629 10.82,1.23 5.41,0.621 2.711,0.309 2.692,0.402 10.769,1.61 c 14.379,1.937 28.621,4.808 42.899,7.359 l 21.281,4.59 5.32,1.148 c 1.77,0.372 3.52,0.864 5.282,1.293 l 10.546,2.649 c 14.122,3.332 28.004,7.52 42,11.42 l 20.731,6.59 5.18,1.65 c 0.863,0.28 1.73,0.54 2.589,0.83 l 2.571,0.91 10.25,3.63 10.269,3.6 5.129,1.8 5.071,2 20.3,7.86 c 3.41,1.26 6.711,2.76 10.059,4.16 l 10,4.25 10,4.25 c 1.68,0.68 3.301,1.51 5,2.24 l 4.949,2.27 19.781,9.09 c 6.512,3.21 13.071,6.31 19.512,9.65 13,6.53 25.731,13.43 38.422,20.49 12.687,7.06 25.117,14.57 37.488,22.17 12.371,7.6 24.481,15.63 36.5,23.81 12.02,8.18 23.813,16.68 35.431,25.41 5.76,4.44 11.57,8.81 17.23,13.38 5.66,4.58 11.36,9.09 17,13.68 -5.46,-4.82 -10.87,-9.69 -16.44,-14.38 -5.57,-4.69 -11.2,-9.3 -16.83,-13.92 -11.375,-9.1 -22.949,-17.96 -34.723,-26.55 -11.844,-8.5 -23.871,-16.74 -36.078,-24.73 -3,-2 -6.141,-3.93 -9.223,-5.89 l -4.617,-2.92 -4.66,-2.85 -9.351,-5.69 -9.43,-5.55 c -3.129,-1.87 -6.32,-3.64 -9.488,-5.45 -3.172,-1.81 -6.332,-3.63 -9.543,-5.36 l -9.618,-5.22 c -3.211,-1.73 -6.461,-3.38 -9.691,-5.08 -6.449,-3.42 -13,-6.6 -19.52,-9.9 l -19.8,-9.33 c -3.309,-1.53 -6.578,-3.15 -9.918,-4.61 l -10.063,-4.31 -10.058,-4.31 c -3.36,-1.42 -6.68,-2.94 -10.098,-4.22 l -20.391,-8 -5.101,-2 -5.16,-1.83 -10.321,-3.65 -10.328,-3.62 -2.582,-0.91 c -0.859,-0.29 -1.738,-0.56 -2.609,-0.83 l -5.231,-1.65 -20.886,-6.568 -21.09,-5.89 -5.274,-1.469 c -0.879,-0.242 -1.75,-0.5 -2.636,-0.723 l -2.661,-0.648 -10.64,-2.57 -10.649,-2.559 c -1.781,-0.41 -3.543,-0.883 -5.332,-1.242 l -5.359,-1.098 -21.441,-4.41 c -14.387,-2.461 -28.75,-5.121 -43.25,-6.832 l -10.848,-1.449 -2.711,-0.36 -2.731,-0.269 -5.449,-0.531 -10.89,-1.071 -5.438,-0.519 -2.719,-0.262 c -0.91,-0.078 -1.82,-0.117 -2.73,-0.18 l -21.852,-1.308 c -3.629,-0.278 -7.289,-0.258 -10.929,-0.379 l -10.93,-0.262 -5.473,-0.109 -2.726,-0.059 h -2.731 l -10.929,0.18 -10.93,0.18 c -0.91,0 -1.82,0 -2.731,0.058 l -2.73,0.152 -5.457,0.29 -10.91,0.578 c -3.641,0.203 -7.274,0.343 -10.903,0.742 l -21.738,2.097 -0.094,0.02"
             style="fill:url(#radialGradient100);fill-opacity:1;fill-rule:nonzero;stroke:none"
             id="path102" />
        </g>
      </g>
      <g
         id="g104">
        <g
           id="g106"
           clip-path="url(#clipPath110)">
          <path
             d="m 386.75,402.559 22.73,10.281 c 7.547,3.488 15.067,7.031 22.559,10.64 14.988,7.18 29.852,14.598 44.602,22.258 14.726,7.692 29.367,15.524 43.828,23.692 14.461,8.172 28.851,16.468 43,25.101 14.152,8.629 28.281,17.418 42.191,26.496 13.91,9.082 27.66,18.379 41.301,27.871 13.641,9.493 27.078,19.262 40.379,29.223 l 10,7.481 9.898,7.582 19.633,15.39 -9.402,-8.222 -9.528,-8.059 -9.613,-8 -9.687,-7.871 c -13.02,-10.379 -26.262,-20.473 -39.723,-30.281 -13.438,-9.828 -27.168,-19.282 -41,-28.532 -13.828,-9.25 -28,-18.109 -42.188,-26.769 -14.191,-8.66 -28.691,-17 -43.281,-25 -14.59,-8 -29.351,-15.77 -44.289,-23.129 -14.937,-7.359 -30,-14.461 -45.23,-21.191 -7.621,-3.329 -15.285,-6.59 -23,-9.79 l -11.559,-4.718 -11.633,-4.532 0.012,0.079"
             style="fill:url(#radialGradient116);fill-opacity:1;fill-rule:nonzero;stroke:none"
             id="path118" />
        </g>
      </g>
      <g
         id="g120">
        <g
           id="g122"
           clip-path="url(#clipPath126)">
          <path
             d="m 847.699,724.641 c 5.403,6.339 10.778,12.695 16.133,19.07 5.352,6.371 10.606,12.82 15.77,19.352 10.418,12.964 20.578,26.125 30.48,39.48 9.871,13.367 19.551,26.887 28.848,40.656 9.3,13.774 18.39,27.684 27.082,41.844 8.687,14.156 17.117,28.469 25.172,43 8.05,14.527 15.726,29.258 23.116,44.156 7.39,14.903 14.33,30.001 20.92,45.261 3.34,7.62 6.55,15.29 9.65,23 3.1,7.72 6.1,15.47 9,23.27 l -3.87,-11.88 c -1.37,-3.93 -2.71,-7.88 -4.12,-11.8 -2.82,-7.84 -5.73,-15.65 -8.77,-23.41 -6.14,-15.49 -12.75,-30.792 -19.85,-45.906 -7.06,-15.113 -14.67,-30 -22.58,-44.66 -7.91,-14.66 -16.36,-29.09 -25.078,-43.301 -8.723,-14.207 -17.903,-28.16 -27.391,-41.878 -9.492,-13.719 -19.32,-27.2 -29.531,-40.379 -10.207,-13.18 -20.7,-26.141 -31.532,-38.813 -5.437,-6.312 -10.941,-12.562 -16.519,-18.75 l -8.41,-9.238 -8.571,-9.09 0.051,0.016"
             style="fill:url(#radialGradient132);fill-opacity:1;fill-rule:nonzero;stroke:none"
             id="path134" />
        </g>
      </g>
      <path
         d="m 166.516,274.762 v -64.653 c -8.106,8.993 -16.188,15.59 -24.243,19.789 -8.058,4.204 -16.679,6.301 -25.875,6.301 -17.0035,0 -30.7652,-5.801 -41.2964,-17.418 C 64.5742,207.16 59.3125,192.02 59.3125,173.328 59.3125,155.93 64.6719,141.5 75.3984,130.039 86.125,118.57 99.793,112.84 116.398,112.84 c 9.196,0 17.817,2.09 25.875,6.301 8.055,4.199 16.137,10.839 24.243,19.937 V 74.2813 c -9.391,-4.5508 -18.735,-7.961 -28.024,-10.2305 -9.293,-2.2695 -18.683,-3.4102 -28.172,-3.4102 -11.863,0 -22.8122,1.4102 -32.8434,4.2305 C 67.4414,67.6797 58.2227,71.9609 49.8203,77.6914 33.6094,88.5703 21.2539,102.262 12.7539,118.77 4.25,135.27 0,153.859 0,174.52 c 0,16.609 2.69141,31.71 8.08203,45.3 5.38677,13.59 13.51567,25.918 24.39067,36.989 10.2812,10.582 21.8711,18.492 34.7695,23.73 12.9023,5.242 27.2617,7.859 43.0778,7.859 9.489,0 18.879,-1.136 28.172,-3.41 9.289,-2.277 18.633,-5.687 28.024,-10.226"
         style="fill:#3fb3ad;fill-opacity:1;fill-rule:nonzero;stroke:none"
         id="path136" />
      <path
         d="M 196.469,66.1289 V 215.891 h 49.824 v -35.289 c 5.137,12.847 12.156,22.488 21.055,28.91 8.894,6.429 19.668,9.636 32.324,9.636 2.074,0 4.176,-0.07 6.301,-0.218 2.125,-0.149 4.277,-0.371 6.453,-0.668 l -5.043,-48.043 c -3.164,1.09 -6.278,1.883 -9.34,2.371 -3.066,0.5 -6.031,0.738 -8.898,0.738 -12.852,0 -22.762,-3.93 -29.731,-11.777 -6.969,-7.86 -10.453,-19.012 -10.453,-33.442 V 66.1289 h -52.492"
         style="fill:#3fb3ad;fill-opacity:1;fill-rule:nonzero;stroke:none"
         id="path138" />
      <path
         d="m 446.023,141.16 c 0,11.66 -3.113,20.899 -9.339,27.719 -6.231,6.832 -14.731,10.242 -25.504,10.242 -10.778,0 -19.254,-3.391 -25.43,-10.16 -6.18,-6.77 -9.27,-16.039 -9.27,-27.801 0,-11.672 3.114,-20.859 9.344,-27.578 6.227,-6.73 14.68,-10.094 25.356,-10.094 10.773,0 19.273,3.364 25.504,10.094 6.226,6.719 9.339,15.906 9.339,27.578 z m 46.411,74.731 V 66.1289 h -48.485 v 24.3125 c -6.922,-10.3711 -14.707,-17.9922 -23.355,-22.832 -8.653,-4.8399 -18.809,-7.2696 -30.473,-7.2696 -19.969,0 -35.933,7.2891 -47.894,21.879 -11.961,14.582 -17.942,34.1212 -17.942,58.6402 0,24.422 6.254,43.821 18.758,58.2 12.504,14.382 29.336,21.57 50.488,21.57 11.274,0 20.985,-2.391 29.141,-7.188 8.152,-4.793 15.144,-12.179 20.98,-22.16 v 24.61 h 48.782"
         style="fill:#3fb3ad;fill-opacity:1;fill-rule:nonzero;stroke:none"
         id="path140" />
      <path
         d="M 537.512,66.1289 V 178.52 h -22.539 v 37.371 h 22.539 v 30.687 c 0,17.402 4.746,30.504 14.234,39.301 9.488,8.793 23.676,13.191 42.555,13.191 2.672,0 5.859,-0.242 9.566,-0.738 3.707,-0.492 7.684,-1.184 11.938,-2.07 v -40.34 c -2.375,0.887 -4.575,1.558 -6.602,2.008 -2.027,0.441 -3.879,0.66 -5.558,0.66 -4.946,0 -8.551,-1.481 -10.825,-4.442 -2.273,-2.968 -3.41,-7.769 -3.41,-14.386 v -23.871 h 26.395 V 178.52 H 589.41 V 66.1289 h -51.898"
         style="fill:#3fb3ad;fill-opacity:1;fill-rule:nonzero;stroke:none"
         id="path142" />
      <path
         d="M 647.09,66.1289 V 178.52 h -22.391 v 37.371 h 22.391 v 44.629 h 52.047 v -44.629 h 22.386 V 178.52 H 699.137 V 66.1289 H 647.09"
         style="fill:#3fb3ad;fill-opacity:1;fill-rule:nonzero;stroke:none"
         id="path144" />
      <path
         d="m 737.984,0 42.114,88.9609 -60.352,126.9301 h 58.57 l 20.911,-54.121 c 1.777,-4.551 3.261,-8.782 4.445,-12.68 1.187,-3.91 2.078,-7.539 2.672,-10.899 0.594,3.559 1.457,7.239 2.594,11.047 1.132,3.801 2.593,7.981 4.375,12.532 l 21.203,54.121 h 56.496 L 796.852,0 h -58.868"
         style="fill:#3fb3ad;fill-opacity:1;fill-rule:nonzero;stroke:none"
         id="path146" />
      <path
         d="m 966.336,110.461 h 20.758 c 14.036,0 23.976,1.758 29.806,5.269 5.83,3.5 8.75,9.36 8.75,17.571 0,9.09 -2.67,15.437 -8.01,19.051 -5.34,3.609 -15.22,5.41 -29.656,5.41 h -21.648 z m 0,86 h 11.863 c 14.625,0 24.661,1.609 30.101,4.82 5.43,3.219 8.15,8.778 8.15,16.688 0,8.203 -2.54,13.961 -7.63,17.269 -5.09,3.313 -15.004,4.973 -29.734,4.973 h -12.75 z M 911.473,66.1289 V 283.211 h 59.457 c 24.515,0 41.64,-0.789 51.38,-2.371 9.74,-1.59 18.11,-4.301 25.14,-8.16 8,-4.45 14.1,-10.399 18.31,-17.871 4.2,-7.457 6.3,-16.09 6.3,-25.868 0,-12.363 -3.14,-22.171 -9.42,-29.441 -6.28,-7.262 -16.28,-12.77 -30.02,-16.531 15.42,-1.18 27.48,-6.598 36.18,-16.239 8.69,-9.628 13.05,-22.511 13.05,-38.621 0,-11.57 -2.45,-21.75 -7.34,-30.5504 -4.9,-8.7969 -11.89,-15.6172 -20.99,-20.457 -7.41,-3.9532 -16.55,-6.7735 -27.43,-8.4532 -10.87,-1.6796 -28.668,-2.5195 -53.379,-2.5195 h -61.238"
         style="fill:#f78d11;fill-opacity:1;fill-rule:nonzero;stroke:none"
         id="path148" />
      <path
         d="m 1227.9,141.16 c 0,11.66 -3.11,20.899 -9.34,27.719 -6.23,6.832 -14.73,10.242 -25.51,10.242 -10.77,0 -19.25,-3.391 -25.43,-10.16 -6.17,-6.77 -9.26,-16.039 -9.26,-27.801 0,-11.672 3.11,-20.859 9.34,-27.578 6.23,-6.73 14.68,-10.094 25.35,-10.094 10.78,0 19.28,3.364 25.51,10.094 6.23,6.719 9.34,15.906 9.34,27.578 z m 46.41,74.731 V 66.1289 h -48.49 v 24.3125 c -6.92,-10.3711 -14.7,-17.9922 -23.35,-22.832 -8.65,-4.8399 -18.81,-7.2696 -30.47,-7.2696 -19.97,0 -35.94,7.2891 -47.9,21.879 -11.96,14.582 -17.94,34.1212 -17.94,58.6402 0,24.422 6.25,43.821 18.76,58.2 12.5,14.382 29.33,21.57 50.49,21.57 11.27,0 20.98,-2.391 29.14,-7.188 8.15,-4.793 15.14,-12.179 20.98,-22.16 v 24.61 h 48.78"
         style="fill:#f78d11;fill-opacity:1;fill-rule:nonzero;stroke:none"
         id="path150" />
      <path
         d="m 1306.04,0 42.11,88.9609 -60.35,126.9301 h 58.57 l 20.91,-54.121 c 1.78,-4.551 3.26,-8.782 4.45,-12.68 1.19,-3.91 2.08,-7.539 2.67,-10.899 0.59,3.559 1.46,7.239 2.59,11.047 1.14,3.801 2.6,7.981 4.38,12.532 l 21.2,54.121 h 56.5 L 1364.91,0 h -58.87"
         style="fill:#f78d11;fill-opacity:1;fill-rule:nonzero;stroke:none"
         id="path152" />
    </g>
  </g>
</svg>
