<?xml version="1.0" encoding="UTF-8" standalone="no"?>
<!-- Created with Inkscape (http://www.inkscape.org/) -->

<svg
   version="1.1"
   id="svg2"
   width="131.88"
   height="34.599998"
   viewBox="0 0 131.88 34.599998"
   sodipodi:docname="logo_nav.eps"
   xmlns:inkscape="http://www.inkscape.org/namespaces/inkscape"
   xmlns:sodipodi="http://sodipodi.sourceforge.net/DTD/sodipodi-0.dtd"
   xmlns="http://www.w3.org/2000/svg"
   xmlns:svg="http://www.w3.org/2000/svg">
  <defs
     id="defs6">
    <clipPath
       clipPathUnits="userSpaceOnUse"
       id="clipPath18">
      <path
         d="m 194.57,30.5664 c 1.68,-8.0781 -1.972,-16.332 -9.086,-20.5117 -7.148,-4.87892 -16.906,-3.03517 -21.781,4.1172 -0.086,0.125 -0.172,0.25 -0.25,0.375 l -16.488,25.5469 22.031,7.7421 c 1.426,0.3555 2.297,1.8008 1.942,3.2305 -0.153,0.5977 -0.5,1.125 -0.997,1.4922 l -44.464,28.5039 c 10.98,12.0781 20.781,25.1795 29.281,39.1175 7.945,12.992 14.488,26.797 19.519,41.175 z"
         id="path16" />
    </clipPath>
    <linearGradient
       x1="0"
       y1="0"
       x2="1"
       y2="0"
       gradientUnits="userSpaceOnUse"
       gradientTransform="matrix(42.2532,-60.0706,27.1032,93.6485,161.965,97.746)"
       spreadMethod="pad"
       id="linearGradient24">
      <stop
         style="stop-opacity:1;stop-color:#5ac7c2"
         offset="0"
         id="stop20" />
      <stop
         style="stop-opacity:1;stop-color:#2d719d"
         offset="1"
         id="stop22" />
    </linearGradient>
    <clipPath
       clipPathUnits="userSpaceOnUse"
       id="clipPath34">
      <path
         d="M 0,0 H 989 V 259 H 0 Z"
         id="path32" />
    </clipPath>
    <clipPath
       clipPathUnits="userSpaceOnUse"
       id="clipPath40">
      <path
         d="m 169.723,190.934 4.59,-29.59 C 163.578,131.586 146.973,104.289 125.484,81.0703 L 96.8125,99.4492 C 94.9492,100.512 92.5781,99.8633 91.5195,98 91.1289,97.3164 90.957,96.5313 91.0234,95.7461 L 96.8711,53.5898 C 72.6367,33.3555 45.4844,16.9102 16.332,4.80078 5.33984,8.23828 -1.48828,19.2031 0.277344,30.5859 L 17.0781,139.039 c 36.3008,-2.687 72.6485,4.524 105.1679,20.871 17.106,8.238 33.063,18.668 47.477,31.024 z"
         id="path38" />
    </clipPath>
    <linearGradient
       x1="0"
       y1="0"
       x2="1"
       y2="0"
       gradientUnits="userSpaceOnUse"
       gradientTransform="matrix(47.0641,-60.4931,56.6512,50.2558,72.47,120.91)"
       spreadMethod="pad"
       id="linearGradient46">
      <stop
         style="stop-opacity:1;stop-color:#f89a32"
         offset="0"
         id="stop42" />
      <stop
         style="stop-opacity:1;stop-color:#ed2724"
         offset="1"
         id="stop44" />
    </linearGradient>
    <clipPath
       clipPathUnits="userSpaceOnUse"
       id="clipPath56">
      <path
         d="M 0,0 H 989 V 259 H 0 Z"
         id="path54" />
    </clipPath>
    <clipPath
       clipPathUnits="userSpaceOnUse"
       id="clipPath62">
      <path
         d="M 68.7734,201.891 H 126.09 c -0.277,5.82 -1.133,11.597 -2.551,17.254 -1.488,6.156 -3.871,12.066 -7.062,17.535 -2.383,4.195 -5.598,7.859 -9.446,10.769 -5.617,4.43 -13.5349,4.43 -19.1521,0 -3.8476,-2.91 -7.0586,-6.574 -9.4414,-10.769 -3.1914,-5.473 -5.5664,-11.379 -7.0547,-17.535 -1.418,-5.653 -2.2734,-11.434 -2.5508,-17.254 z m 100.7576,-9.692 0.199,-1.265 C 155.32,178.578 139.363,168.145 122.266,159.902 89.7461,143.551 53.3945,136.34 17.0977,139.031 l 8.2343,53.168 c 0.8672,5.586 5.6797,9.703 11.3321,9.692 h 23.4297 c 1.5117,32.211 17.6601,57.605 37.3515,57.605 19.6917,0 35.8867,-25.355 37.3517,-57.605 h 23.43 c 5.64,-0.008 10.437,-4.118 11.304,-9.692 z"
         id="path60" />
    </clipPath>
    <linearGradient
       x1="0"
       y1="0"
       x2="1"
       y2="0"
       gradientUnits="userSpaceOnUse"
       gradientTransform="matrix(11.9055,-69.2223,87.307,9.43941,85.4528,211.33)"
       spreadMethod="pad"
       id="linearGradient68">
      <stop
         style="stop-opacity:1;stop-color:#ec0980"
         offset="0"
         id="stop64" />
      <stop
         style="stop-opacity:1;stop-color:#57143f"
         offset="1"
         id="stop66" />
    </linearGradient>
    <clipPath
       clipPathUnits="userSpaceOnUse"
       id="clipPath78">
      <path
         d="m 130.738,14.6875 c 2.129,-3.293 1.18,-7.69141 -2.117,-9.81641 -1.144,-0.74218 -2.484,-1.13671 -3.851,-1.13671 H 23.2852 C 20.9258,3.73047 18.582,4.08594 16.332,4.78516 45.4883,16.8906 72.6406,33.3398 96.8711,53.5703 L 102.965,9.67578 c 0.312,-1.4375 1.73,-2.34765 3.172,-2.03125 0.586,0.12891 1.109,0.45313 1.492,0.91797 l 16.254,16.7539 6.855,-10.625 z"
         id="path76" />
    </clipPath>
    <linearGradient
       x1="0"
       y1="0"
       x2="1"
       y2="0"
       gradientUnits="userSpaceOnUse"
       gradientTransform="matrix(-170.423,-223.819,518.894,-73.5098,225.827,205.872)"
       spreadMethod="pad"
       id="linearGradient84">
      <stop
         style="stop-opacity:1;stop-color:#5ac7c2"
         offset="0"
         id="stop80" />
      <stop
         style="stop-opacity:1;stop-color:#2d719d"
         offset="1"
         id="stop82" />
    </linearGradient>
    <clipPath
       clipPathUnits="userSpaceOnUse"
       id="clipPath100">
      <path
         d="m 17.0859,139.02 5.1563,-0.286 c 0.4375,0 0.8594,-0.062 1.2969,-0.062 h 1.2929 l 2.5782,-0.059 h 1.2929 1.293 2.5781 2.5781 0.6407 0.6406 l 1.2969,0.067 2.5742,0.121 c 0.8594,0.047 1.7226,0.066 2.5781,0.152 l 5.1367,0.426 0.6446,0.055 0.6406,0.078 1.2851,0.148 2.5586,0.293 1.2774,0.152 0.6406,0.079 0.6328,0.093 2.5508,0.375 c 3.4102,0.465 6.7813,1.145 10.1602,1.75 l 5.0351,1.086 1.2578,0.274 c 0.4141,0.086 0.8282,0.207 1.2461,0.301 l 2.5,0.625 c 3.3438,0.785 6.6133,1.785 9.9453,2.703 l 4.9102,1.558 1.2305,0.395 0.6132,0.199 0.6016,0.215 2.4297,0.859 2.4333,0.852 1.223,0.426 1.195,0.46 4.809,1.887 c 0.801,0.305 1.586,0.653 2.379,0.946 l 2.371,1.011 2.371,1.012 c 0.394,0.16 0.781,0.359 1.172,0.527 l 1.168,0.539 4.722,2.153 c 1.54,0.765 3.098,1.492 4.622,2.285 3.066,1.551 6.089,3.183 9.093,4.855 3.004,1.672 5.95,3.45 8.875,5.25 2.926,1.805 5.801,3.703 8.645,5.668 2.84,1.965 5.664,3.946 8.383,6.016 1.363,1.047 2.742,2.086 4.082,3.164 1.34,1.074 2.691,2.152 4.023,3.238 -1.297,-1.14 -2.578,-2.297 -3.891,-3.398 -1.316,-1.106 -2.656,-2.203 -3.988,-3.297 -2.695,-2.152 -5.433,-4.25 -8.222,-6.289 -2.793,-2.039 -5.625,-3.992 -8.5,-5.856 -0.719,-0.472 -1.457,-0.945 -2.184,-1.398 l -1.094,-0.688 -1.105,-0.671 -2.207,-1.352 -2.231,-1.312 c -0.734,-0.446 -1.492,-0.86 -2.25,-1.286 -0.754,-0.425 -1.5,-0.859 -2.254,-1.265 l -2.277,-1.235 c -0.754,-0.406 -1.531,-0.804 -2.297,-1.199 -1.527,-0.812 -3.078,-1.558 -4.625,-2.344 l -4.723,-2.211 c -0.785,-0.359 -1.558,-0.746 -2.351,-1.093 l -2.379,-1.02 -2.379,-1.019 c -0.793,-0.34 -1.578,-0.7 -2.391,-1.004 l -4.828,-1.887 -1.207,-0.473 -1.218,-0.433 -2.4458,-0.871 -2.4492,-0.86 -0.6133,-0.215 -0.6133,-0.199 -1.2343,-0.386 -4.9493,-1.559 -4.996,-1.398 -1.2461,-0.348 -0.625,-0.172 -0.6329,-0.148 -2.5234,-0.614 -2.5195,-0.605 c -0.4141,-0.094 -0.8399,-0.207 -1.2656,-0.293 l -1.2735,-0.266 -5.082,-1.047 c -3.4102,-0.586 -6.8086,-1.207 -10.2383,-1.613 l -2.5664,-0.34 -0.6445,-0.086 -0.6407,-0.066 -1.2929,-0.121 -2.5782,-0.254 -1.2851,-0.125 -0.6406,-0.055 h -0.6446 l -5.1718,-0.312 c -0.8594,-0.067 -1.7305,-0.067 -2.5899,-0.094 L 37.793,138.07 H 36.5 35.207 32.6211 30.0313 29.3789 28.7383 l -1.293,0.067 -2.5898,0.14 c -0.8594,0 -1.7188,0.086 -2.5782,0.172 l -5.1445,0.5 z"
         id="path98" />
    </clipPath>
    <radialGradient
       fx="0"
       fy="0"
       cx="0"
       cy="0"
       r="1"
       gradientUnits="userSpaceOnUse"
       gradientTransform="matrix(76.4011,0,0,76.2026,93.4161,164.489)"
       spreadMethod="pad"
       id="radialGradient106">
      <stop
         style="stop-opacity:1;stop-color:#ffffff"
         offset="0"
         id="stop102" />
      <stop
         style="stop-opacity:1;stop-color:#f89a32"
         offset="1"
         id="stop104" />
    </radialGradient>
    <clipPath
       clipPathUnits="userSpaceOnUse"
       id="clipPath116">
      <path
         d="m 16.332,4.78125 5.3828,2.4375 c 1.7852,0.83203 3.5704,1.66406 5.336,2.52344 3.5508,1.69921 7.0703,3.45701 10.5586,5.26951 3.4844,1.8242 6.9609,3.6719 10.3867,5.6094 3.4297,1.9375 6.8281,3.9023 10.1914,5.9414 3.3594,2.0391 6.6953,4.125 9.9922,6.2813 3.2969,2.1523 6.5547,4.3515 9.7851,6.6093 3.2266,2.2578 6.4102,4.5586 9.5547,6.9102 l 2.3633,1.7773 2.3399,1.793 4.6484,3.6445 -2.2305,-1.9453 -2.2578,-1.8867 -2.2734,-1.8906 -2.2969,-1.8867 C 84.7344,43.5117 81.5859,41.125 78.3672,38.8008 75.1875,36.4766 71.9375,34.2383 68.6602,32.0469 65.3828,29.8555 62.0508,27.7578 58.668,25.7109 55.2891,23.6641 51.8789,21.6953 48.4219,19.8008 44.9648,17.9023 41.4727,16.0234 37.9414,14.3203 34.4063,12.6172 30.8398,10.9023 27.2305,9.30469 25.4219,8.51953 23.6094,7.74609 21.7891,6.99219 L 19.0508,5.86719 16.293,4.79297 Z"
         id="path114" />
    </clipPath>
    <radialGradient
       fx="0"
       fy="0"
       cx="0"
       cy="0"
       r="1"
       gradientUnits="userSpaceOnUse"
       gradientTransform="matrix(114.016,0,0,113.942,84.1589,41.722)"
       spreadMethod="pad"
       id="radialGradient122">
      <stop
         style="stop-opacity:1;stop-color:#ffffff"
         offset="0"
         id="stop118" />
      <stop
         style="stop-opacity:1;stop-color:#2d719d"
         offset="1"
         id="stop120" />
    </radialGradient>
    <clipPath
       clipPathUnits="userSpaceOnUse"
       id="clipPath132">
      <path
         d="m 125.477,81.0547 c 1.261,1.5039 2.519,3.0078 3.777,4.5117 1.262,1.5078 2.519,3.0313 3.777,4.582 2.469,3.0743 4.875,6.1875 7.215,9.3477 2.344,3.1639 4.629,6.3669 6.84,9.6249 2.211,3.258 4.352,6.555 6.41,9.906 2.059,3.352 4.051,6.743 5.961,10.18 1.91,3.438 3.731,6.934 5.477,10.457 1.75,3.524 3.39,7.102 4.961,10.719 0.781,1.805 1.546,3.617 2.281,5.449 0.738,1.832 1.445,3.664 2.144,5.504 l -0.945,-2.832 c -0.32,-0.945 -0.641,-1.891 -0.945,-2.832 -0.664,-1.859 -1.356,-3.707 -2.067,-5.547 -1.457,-3.672 -3.027,-7.293 -4.722,-10.867 -1.672,-3.582 -3.477,-7.106 -5.344,-10.578 -1.871,-3.477 -3.871,-6.887 -5.942,-10.258 -2.066,-3.371 -4.238,-6.668 -6.488,-9.918 -2.246,-3.246 -4.566,-6.441 -6.988,-9.5548 -2.418,-3.1172 -4.902,-6.1875 -7.461,-9.1914 -1.258,-1.4922 -2.563,-2.9726 -3.91,-4.4375 l -1.992,-2.1914 -2.032,-2.1523 z"
         id="path130" />
    </clipPath>
    <radialGradient
       fx="0"
       fy="0"
       cx="0"
       cy="0"
       r="1"
       gradientUnits="userSpaceOnUse"
       gradientTransform="matrix(106.797,0,0,106.881,148.696,112.236)"
       spreadMethod="pad"
       id="radialGradient138">
      <stop
         style="stop-opacity:1;stop-color:#ffffff"
         offset="0"
         id="stop134" />
      <stop
         style="stop-opacity:1;stop-color:#2d719d"
         offset="1"
         id="stop136" />
    </radialGradient>
  </defs>
  <sodipodi:namedview
     id="namedview4"
     pagecolor="#ffffff"
     bordercolor="#000000"
     borderopacity="0.25"
     inkscape:showpageshadow="2"
     inkscape:pageopacity="0.0"
     inkscape:pagecheckerboard="0"
     inkscape:deskcolor="#d1d1d1" />
  <g
     id="g8"
     inkscape:groupmode="layer"
     inkscape:label="ink_ext_XXXXXX"
     transform="matrix(1.3333333,0,0,-1.3333333,0,34.6)">
    <g
       id="g10"
       transform="scale(0.1)">
      <g
         id="g12">
        <g
           id="g14"
           clip-path="url(#clipPath18)">
          <path
             d="m 194.57,30.5664 c 1.68,-8.0781 -1.972,-16.332 -9.086,-20.5117 -7.148,-4.87892 -16.906,-3.03517 -21.781,4.1172 -0.086,0.125 -0.172,0.25 -0.25,0.375 l -16.488,25.5469 22.031,7.7421 c 1.426,0.3555 2.297,1.8008 1.942,3.2305 -0.153,0.5977 -0.5,1.125 -0.997,1.4922 l -44.464,28.5039 c 10.98,12.0781 20.781,25.1795 29.281,39.1175 7.945,12.992 14.488,26.797 19.519,41.175 L 194.57,30.5664"
             style="fill:url(#linearGradient24);fill-opacity:1;fill-rule:nonzero;stroke:none"
             id="path26" />
        </g>
      </g>
      <g
         id="g28">
        <g
           id="g30"
           clip-path="url(#clipPath34)">
          <g
             id="g36"
             clip-path="url(#clipPath40)">
            <path
               d="M 15,4 V 5 H 13 V 6 H 11 V 7 H 10 V 8 H 8 V 9 H 7 v 1 H 6 v 1 H 5 v 2 H 4 v 1 H 3 v 2 H 2 v 2 H 1 v 2 H 0 v 16 h 1 v 6 h 1 v 7 h 1 v 6 h 1 v 7 h 1 v 6 h 1 v 6 h 1 v 7 h 1 v 6 h 1 v 7 h 1 v 6 h 1 v 7 h 1 v 6 h 1 v 7 h 1 v 6 h 1 v 7 h 1 v 6 h 1 v 1 h 1 v -1 h 27 v 1 h 8 v 1 h 7 v 1 h 8 v 1 h 5 v 1 h 4 v 1 h 3 v 1 h 4 v 1 h 4 v 1 h 4 v 1 h 3 v 1 h 3 v 1 h 3 v 1 h 2 v 1 h 3 v 1 h 2 v 1 h 3 v 1 h 3 v 1 h 2 v 1 h 2 v 1 h 2 v 1 h 2 v 1 h 2 v 1 h 2 v 1 h 2 v 1 h 2 v 1 h 1 v 1 h 2 v 1 h 2 v 1 h 1 v 1 h 2 v 1 h 2 v 1 h 2 v 1 h 1 v 1 h 2 v 1 h 2 v 1 h 1 v 1 h 1 v 1 h 2 v 1 h 1 v 1 h 2 v 1 h 1 v 1 h 1 v 1 h 2 v 1 h 1 v 1 h 1 v 1 h 2 v 1 h 1 v 1 h 1 v 1 h 2 v 1 h 1 v 1 h 1 v 1 h 2 v -1 h 1 v -7 h 1 v -6 h 1 v -7 h 1 v -6 h 1 v -4 h -1 v -3 h -1 v -2 h -1 v -3 h -1 v -2 h -1 v -2 h -1 v -3 h -1 v -2 h -1 v -2 h -1 v -2 h -1 v -2 h -1 v -2 h -1 v -2 h -1 v -2 h -1 v -2 h -1 v -1 h -1 v -2 h -1 v -2 h -1 v -2 h -1 v -2 h -1 v -2 h -1 v -1 h -1 v -2 h -1 v -1 h -1 v -2 h -1 v -1 h -1 v -1 h -1 v -2 h -1 v -1 h -1 v -2 h -1 v -1 h -1 v -2 h -1 v -1 h -1 v -2 h -1 v -1 h -1 v -1 h -1 v -2 h -1 v -1 h -1 v -1 h -1 v -1 h -1 v -2 h -1 v -1 h -1 v -1 h -1 v -1 h -1 v -1 h -1 v -2 h -1 v -1 h -1 v -1 h -1 v -1 h -3 v 1 h -2 v 1 h -2 v 1 h -1 v 1 h -2 v 1 h -1 v 1 h -2 v 1 h -1 v 1 h -2 v 1 h -1 v 1 h -2 v 1 h -2 v 1 h -1 v 1 h -2 v 1 h -1 v 1 h -2 v 1 h -1 v 1 h -2 v 1 h -4 v -1 h -1 v -9 h 1 v -7 h 1 v -7 h 1 v -7 h 1 v -8 h 1 V 52 H 95 V 51 H 94 V 50 H 93 V 49 H 92 V 48 H 90 V 47 H 89 V 46 H 88 V 45 H 86 V 44 H 85 V 43 H 84 V 42 H 82 V 41 H 81 V 40 H 80 V 39 H 78 V 38 H 77 V 37 H 75 V 36 H 74 V 35 H 72 V 34 H 71 V 33 H 69 V 32 H 68 V 31 H 66 V 30 H 65 V 29 H 63 V 28 H 62 V 27 H 60 V 26 H 59 V 25 H 57 V 24 H 55 V 23 H 53 V 22 H 51 V 21 H 50 V 20 H 48 V 19 H 46 V 18 H 44 V 17 H 42 V 16 H 41 V 15 H 39 V 14 H 37 V 13 H 35 V 12 H 33 V 11 H 31 V 10 H 28 V 9 H 26 V 8 H 24 V 7 H 22 V 6 H 20 V 5 H 17 V 4"
               style="fill:url(#linearGradient46);fill-opacity:1;fill-rule:nonzero;stroke:none"
               id="path48" />
          </g>
        </g>
      </g>
      <g
         id="g50">
        <g
           id="g52"
           clip-path="url(#clipPath56)">
          <g
             id="g58"
             clip-path="url(#clipPath62)">
            <path
               d="m 17,138 v 7 h 1 v 7 h 1 v 6 h 1 v 7 h 1 v 6 h 1 v 7 h 1 v 6 h 1 v 7 h 1 v 4 h 1 v 2 h 1 v 1 h 1 v 1 h 1 v 1 h 1 v 1 h 2 v 1 h 28 v 9 h 1 v 6 h 1 v 4 h 1 v 5 h 1 v 2 h 1 v 3 h 1 v 3 h 1 v 2 h 1 v 2 h 1 v 2 h 1 v 2 h 1 v 1 h 1 v 2 h 1 v 1 h 1 v 1 h 1 v 1 h 1 v 2 h 1 v 1 h 1 v 1 h 1 v 1 h 2 v 1 h 1 v 1 h 1 v 1 h 2 v 1 h 2 v 1 h 2 v 1 h 17 v -1 h 2 v -1 h 2 v -1 h 2 v -1 h 1 v -1 h 1 v -1 h 1 v -1 h 2 v -1 h 1 v -1 h 1 v -2 h 1 v -1 h 1 v -1 h 1 v -1 h 1 v -2 h 1 v -2 h 1 v -2 h 1 v -1 h 1 v -2 h 1 v -3 h 1 v -2 h 1 v -3 h 1 v -3 h 1 v -4 h 1 v -4 h 1 v -6 h 1 v -9 h 28 v -1 h 2 v -1 h 1 v -1 h 1 v -1 h 1 v -1 h 1 v -2 h 1 v -5 h -1 v -1 h -1 v -1 h -1 v -1 h -2 v -1 h -1 v -1 h -1 v -1 h -2 v -1 h -1 v -1 h -1 v -1 h -2 v -1 h -1 v -1 h -1 v -1 h -2 v -1 h -1 v -1 h -2 v -1 h -1 v -1 h -1 v -1 h -2 v -1 h -2 v -1 h -1 v -1 h -2 v -1 h -2 v -1 h -2 v -1 h -1 v -1 h -2 v -1 h -2 v -1 h -1 v -1 h -2 v -1 h -2 v -1 h -2 v -1 h -2 v -1 h -2 v -1 h -2 v -1 h -2 v -1 h -2 v -1 h -3 v -1 h -3 v -1 h -2 v -1 h -3 v -1 h -2 v -1 h -3 v -1 h -3 v -1 h -3 v -1 h -4 v -1 h -4 v -1 h -3 v -1 h -4 v -1 h -4 v -1 h -5 v -1 h -8 v -1 h -7 v -1 h -8 v -1 z m 52,65 v -1 h 57 v 1 h -1 v 7 h -1 v 7 h -1 v 4 h -1 v 3 h -1 v 3 h -1 v 2 h -1 v 2 h -1 v 2 h -1 v 2 h -1 v 2 h -1 v 1 h -1 v 2 h -1 v 1 h -1 v 1 h -1 v 1 h -1 v 1 h -1 v 1 h -1 v 1 h -1 v 1 h -1 v 1 h -2 v 1 h -2 v 1 h -9 v -1 h -2 v -1 h -2 v -1 h -1 v -1 h -1 v -1 h -1 v -1 h -1 v -1 h -1 v -1 h -1 v -1 h -1 v -1 h -1 v -1 h -1 v -2 h -1 v -2 h -1 v -2 h -1 v -2 h -1 v -3 h -1 v -2 h -1 v -3 h -1 v -2 h -1 v -4 h -1 v -7 h -1 v -6 h -1 v -1"
               style="fill:url(#linearGradient68);fill-opacity:1;fill-rule:nonzero;stroke:none"
               id="path70" />
          </g>
        </g>
      </g>
      <g
         id="g72">
        <g
           id="g74"
           clip-path="url(#clipPath78)">
          <path
             d="m 130.738,14.6875 c 2.129,-3.293 1.18,-7.69141 -2.117,-9.81641 -1.144,-0.74218 -2.484,-1.13671 -3.851,-1.13671 H 23.2852 C 20.9258,3.73047 18.582,4.08594 16.332,4.78516 45.4883,16.8906 72.6406,33.3398 96.8711,53.5703 L 102.965,9.67578 c 0.312,-1.4375 1.73,-2.34765 3.172,-2.03125 0.586,0.12891 1.109,0.45313 1.492,0.91797 l 16.254,16.7539 6.855,-10.625 v -0.0039"
             style="fill:url(#linearGradient84);fill-opacity:1;fill-rule:nonzero;stroke:none"
             id="path86" />
        </g>
      </g>
      <path
         d="m 125.484,81.0547 c 21.489,23.2153 38.094,50.5113 48.829,80.2733 l -0.672,4.324 C 162.285,134.871 144.258,106.984 120.848,84 l 4.636,-2.9453"
         style="fill:#d02125;fill-opacity:1;fill-rule:nonzero;stroke:none"
         id="path88" />
      <path
         d="M 16.332,4.79297 C 45.4844,16.8984 72.6328,33.3477 96.8633,53.582 l -1.0235,7.3399 C 69.9258,39.2891 41.1133,21.3828 10.2422,7.73047 12.1172,6.45703 14.168,5.46875 16.332,4.79297"
         style="fill:#d02125;fill-opacity:1;fill-rule:nonzero;stroke:none"
         id="path90" />
      <path
         d="m 18.0313,145.008 -0.9454,-6.024 c 23.6094,-1.98 47.3789,0.5 70.0664,7.321 12.0625,3.523 23.8047,8.058 35.1057,13.55 17.097,8.243 33.055,18.676 47.465,31.036 l -0.2,1.265 c -0.109,0.719 -0.293,1.43 -0.539,2.114 C 127.086,158.668 72.8633,140.977 18.0313,145.008"
         style="fill:#5f1441;fill-opacity:1;fill-rule:nonzero;stroke:none"
         id="path92" />
      <g
         id="g94">
        <g
           id="g96"
           clip-path="url(#clipPath100)">
          <path
             d="m 17.0859,139.02 5.1563,-0.286 c 0.4375,0 0.8594,-0.062 1.2969,-0.062 h 1.2929 l 2.5782,-0.059 h 1.2929 1.293 2.5781 2.5781 0.6407 0.6406 l 1.2969,0.067 2.5742,0.121 c 0.8594,0.047 1.7226,0.066 2.5781,0.152 l 5.1367,0.426 0.6446,0.055 0.6406,0.078 1.2851,0.148 2.5586,0.293 1.2774,0.152 0.6406,0.079 0.6328,0.093 2.5508,0.375 c 3.4102,0.465 6.7813,1.145 10.1602,1.75 l 5.0351,1.086 1.2578,0.274 c 0.4141,0.086 0.8282,0.207 1.2461,0.301 l 2.5,0.625 c 3.3438,0.785 6.6133,1.785 9.9453,2.703 l 4.9102,1.558 1.2305,0.395 0.6132,0.199 0.6016,0.215 2.4297,0.859 2.4333,0.852 1.223,0.426 1.195,0.46 4.809,1.887 c 0.801,0.305 1.586,0.653 2.379,0.946 l 2.371,1.011 2.371,1.012 c 0.394,0.16 0.781,0.359 1.172,0.527 l 1.168,0.539 4.722,2.153 c 1.54,0.765 3.098,1.492 4.622,2.285 3.066,1.551 6.089,3.183 9.093,4.855 3.004,1.672 5.95,3.45 8.875,5.25 2.926,1.805 5.801,3.703 8.645,5.668 2.84,1.965 5.664,3.946 8.383,6.016 1.363,1.047 2.742,2.086 4.082,3.164 1.34,1.074 2.691,2.152 4.023,3.238 -1.297,-1.14 -2.578,-2.297 -3.891,-3.398 -1.316,-1.106 -2.656,-2.203 -3.988,-3.297 -2.695,-2.152 -5.433,-4.25 -8.222,-6.289 -2.793,-2.039 -5.625,-3.992 -8.5,-5.856 -0.719,-0.472 -1.457,-0.945 -2.184,-1.398 l -1.094,-0.688 -1.105,-0.671 -2.207,-1.352 -2.231,-1.312 c -0.734,-0.446 -1.492,-0.86 -2.25,-1.286 -0.754,-0.425 -1.5,-0.859 -2.254,-1.265 l -2.277,-1.235 c -0.754,-0.406 -1.531,-0.804 -2.297,-1.199 -1.527,-0.812 -3.078,-1.558 -4.625,-2.344 l -4.723,-2.211 c -0.785,-0.359 -1.558,-0.746 -2.351,-1.093 l -2.379,-1.02 -2.379,-1.019 c -0.793,-0.34 -1.578,-0.7 -2.391,-1.004 l -4.828,-1.887 -1.207,-0.473 -1.218,-0.433 -2.4458,-0.871 -2.4492,-0.86 -0.6133,-0.215 -0.6133,-0.199 -1.2343,-0.386 -4.9493,-1.559 -4.996,-1.398 -1.2461,-0.348 -0.625,-0.172 -0.6329,-0.148 -2.5234,-0.614 -2.5195,-0.605 c -0.4141,-0.094 -0.8399,-0.207 -1.2656,-0.293 l -1.2735,-0.266 -5.082,-1.047 c -3.4102,-0.586 -6.8086,-1.207 -10.2383,-1.613 l -2.5664,-0.34 -0.6445,-0.086 -0.6407,-0.066 -1.2929,-0.121 -2.5782,-0.254 -1.2851,-0.125 -0.6406,-0.055 h -0.6446 l -5.1718,-0.312 c -0.8594,-0.067 -1.7305,-0.067 -2.5899,-0.094 L 37.793,138.07 H 36.5 35.207 32.6211 30.0313 29.3789 28.7383 l -1.293,0.067 -2.5898,0.14 c -0.8594,0 -1.7188,0.086 -2.5782,0.172 l -5.1445,0.5 -0.0469,0.071"
             style="fill:url(#radialGradient106);fill-opacity:1;fill-rule:nonzero;stroke:none"
             id="path108" />
        </g>
      </g>
      <g
         id="g110">
        <g
           id="g112"
           clip-path="url(#clipPath116)">
          <path
             d="m 16.332,4.78125 5.3828,2.4375 c 1.7852,0.83203 3.5704,1.66406 5.336,2.52344 3.5508,1.69921 7.0703,3.45701 10.5586,5.26951 3.4844,1.8242 6.9609,3.6719 10.3867,5.6094 3.4297,1.9375 6.8281,3.9023 10.1914,5.9414 3.3594,2.0391 6.6953,4.125 9.9922,6.2813 3.2969,2.1523 6.5547,4.3515 9.7851,6.6093 3.2266,2.2578 6.4102,4.5586 9.5547,6.9102 l 2.3633,1.7773 2.3399,1.793 4.6484,3.6445 -2.2305,-1.9453 -2.2578,-1.8867 -2.2734,-1.8906 -2.2969,-1.8867 C 84.7344,43.5117 81.5859,41.125 78.3672,38.8008 75.1875,36.4766 71.9375,34.2383 68.6602,32.0469 65.3828,29.8555 62.0508,27.7578 58.668,25.7109 55.2891,23.6641 51.8789,21.6953 48.4219,19.8008 44.9648,17.9023 41.4727,16.0234 37.9414,14.3203 34.4063,12.6172 30.8398,10.9023 27.2305,9.30469 25.4219,8.51953 23.6094,7.74609 21.7891,6.99219 L 19.0508,5.86719 16.293,4.79297 16.332,4.78125"
             style="fill:url(#radialGradient122);fill-opacity:1;fill-rule:nonzero;stroke:none"
             id="path124" />
        </g>
      </g>
      <g
         id="g126">
        <g
           id="g128"
           clip-path="url(#clipPath132)">
          <path
             d="m 125.477,81.0547 c 1.261,1.5039 2.519,3.0078 3.777,4.5117 1.262,1.5078 2.519,3.0313 3.777,4.582 2.469,3.0743 4.875,6.1875 7.215,9.3477 2.344,3.1639 4.629,6.3669 6.84,9.6249 2.211,3.258 4.352,6.555 6.41,9.906 2.059,3.352 4.051,6.743 5.961,10.18 1.91,3.438 3.731,6.934 5.477,10.457 1.75,3.524 3.39,7.102 4.961,10.719 0.781,1.805 1.546,3.617 2.281,5.449 0.738,1.832 1.445,3.664 2.144,5.504 l -0.945,-2.832 c -0.32,-0.945 -0.641,-1.891 -0.945,-2.832 -0.664,-1.859 -1.356,-3.707 -2.067,-5.547 -1.457,-3.672 -3.027,-7.293 -4.722,-10.867 -1.672,-3.582 -3.477,-7.106 -5.344,-10.578 -1.871,-3.477 -3.871,-6.887 -5.942,-10.258 -2.066,-3.371 -4.238,-6.668 -6.488,-9.918 -2.246,-3.246 -4.566,-6.441 -6.988,-9.5548 -2.418,-3.1172 -4.902,-6.1875 -7.461,-9.1914 -1.258,-1.4922 -2.563,-2.9726 -3.91,-4.4375 l -1.992,-2.1914 -2.032,-2.1523 -0.007,0.0781"
             style="fill:url(#radialGradient138);fill-opacity:1;fill-rule:nonzero;stroke:none"
             id="path140" />
        </g>
      </g>
      <path
         d="m 316.781,142.922 v -33.629 c -4.218,4.68 -8.422,8.109 -12.609,10.297 -4.195,2.183 -8.68,3.277 -13.461,3.277 -8.844,0 -16.004,-3.019 -21.481,-9.062 -5.476,-6.043 -8.214,-13.9222 -8.214,-23.6409 0,-9.0508 2.789,-16.5586 8.367,-22.5235 5.582,-5.9648 12.687,-8.9453 21.328,-8.9453 4.781,0 9.266,1.0899 13.461,3.2774 4.187,2.1875 8.391,5.6445 12.609,10.375 V 38.6406 c -4.886,-2.3633 -9.746,-4.1367 -14.578,-5.3203 -4.836,-1.1836 -9.719,-1.7734 -14.656,-1.7734 -6.168,0 -11.863,0.7304 -17.082,2.1953 -5.223,1.4687 -10.016,3.6914 -14.387,6.6758 -8.433,5.6523 -14.859,12.7734 -19.281,21.3633 -4.422,8.5859 -6.633,18.2539 -6.633,29 0,8.6406 1.399,16.4917 4.203,23.5627 2.805,7.07 7.031,13.484 12.688,19.246 5.347,5.5 11.379,9.613 18.086,12.34 6.711,2.722 14.179,4.086 22.406,4.086 4.937,0 9.82,-0.59 14.656,-1.774 4.832,-1.183 9.692,-2.957 14.578,-5.32"
         style="fill:#3fb3ad;fill-opacity:1;fill-rule:nonzero;stroke:none"
         id="path142" />
      <path
         d="m 332.359,34.3984 v 77.9026 h 25.918 V 93.9453 c 2.672,6.6837 6.325,11.6957 10.953,15.0387 4.625,3.34 10.231,5.012 16.813,5.012 1.078,0 2.172,-0.035 3.277,-0.113 1.106,-0.078 2.223,-0.195 3.356,-0.348 l -2.621,-24.9881 c -1.649,0.5625 -3.27,0.9726 -4.86,1.2304 -1.593,0.2579 -3.136,0.3868 -4.629,0.3868 -6.683,0 -11.839,-2.043 -15.464,-6.1328 -3.625,-4.086 -5.438,-9.8829 -5.438,-17.3907 V 34.3984 h -27.305"
         style="fill:#3fb3ad;fill-opacity:1;fill-rule:nonzero;stroke:none"
         id="path144" />
      <path
         d="m 462.168,73.4258 c 0,6.0664 -1.617,10.875 -4.859,14.4258 -3.239,3.5468 -7.661,5.3203 -13.266,5.3203 -5.605,0 -10.016,-1.7617 -13.227,-5.2813 -3.214,-3.5234 -4.82,-8.3437 -4.82,-14.4648 0,-6.0664 1.621,-10.8477 4.859,-14.3438 3.239,-3.4961 7.637,-5.2461 13.188,-5.2461 5.605,0 10.027,1.75 13.266,5.2461 3.242,3.4961 4.859,8.2774 4.859,14.3438 z m 24.145,38.8752 V 34.3984 H 461.09 v 12.6524 c -3.602,-5.4024 -7.649,-9.3594 -12.149,-11.8789 -4.5,-2.5196 -9.781,-3.7813 -15.847,-3.7813 -10.391,0 -18.696,3.793 -24.914,11.3789 -6.223,7.5821 -9.332,17.75 -9.332,30.5039 0,12.6993 3.25,22.793 9.754,30.2736 6.503,7.48 15.257,11.223 26.265,11.223 5.86,0 10.91,-1.25 15.156,-3.743 4.243,-2.496 7.879,-6.336 10.911,-11.5309 v 12.8049 h 25.379"
         style="fill:#3fb3ad;fill-opacity:1;fill-rule:nonzero;stroke:none"
         id="path146" />
      <path
         d="m 509.758,34.3984 v 58.4649 h -11.723 v 19.4377 h 11.723 v 15.965 c 0,9.05 2.469,15.863 7.402,20.441 4.938,4.574 12.317,6.863 22.141,6.863 1.387,0 3.047,-0.129 4.972,-0.386 1.93,-0.258 3.997,-0.618 6.207,-1.079 v -20.98 c -1.23,0.465 -2.375,0.809 -3.429,1.043 -1.055,0.23 -2.02,0.348 -2.895,0.348 -2.57,0 -4.445,-0.774 -5.629,-2.317 -1.183,-1.543 -1.773,-4.039 -1.773,-7.48 V 112.301 H 550.48 V 92.8633 H 536.754 V 34.3984 h -26.996"
         style="fill:#3fb3ad;fill-opacity:1;fill-rule:nonzero;stroke:none"
         id="path148" />
      <path
         d="m 566.758,34.3984 v 58.4649 h -11.649 v 19.4377 h 11.649 v 23.215 h 27.07 v -23.215 h 11.649 V 92.8633 H 593.828 V 34.3984 h -27.07"
         style="fill:#3fb3ad;fill-opacity:1;fill-rule:nonzero;stroke:none"
         id="path150" />
      <path
         d="m 614.039,0 21.902,46.2773 -31.39,66.0237 h 30.465 l 10.875,-28.1526 c 0.925,-2.3671 1.699,-4.5625 2.316,-6.5937 0.613,-2.0313 1.078,-3.9219 1.387,-5.668 0.308,1.8477 0.758,3.7656 1.351,5.7461 0.59,1.9766 1.348,4.1485 2.274,6.5156 l 11.027,28.1526 h 29.391 L 644.656,0 h -30.617"
         style="fill:#3fb3ad;fill-opacity:1;fill-rule:nonzero;stroke:none"
         id="path152" />
      <path
         d="m 732.816,57.4609 h 10.797 c 7.301,0 12.473,0.9102 15.504,2.7383 3.035,1.8242 4.551,4.8711 4.551,9.1406 0,4.7305 -1.387,8.0313 -4.164,9.9102 -2.777,1.8789 -7.918,2.8164 -15.426,2.8164 h -11.262 z m 0,44.7341 h 6.172 c 7.61,0 12.828,0.836 15.657,2.508 2.828,1.672 4.242,4.563 4.242,8.676 0,4.269 -1.324,7.266 -3.973,8.988 -2.648,1.723 -7.805,2.582 -15.465,2.582 h -6.633 z M 704.277,34.3984 V 147.316 h 30.93 c 12.754,0 21.66,-0.41 26.727,-1.234 5.062,-0.82 9.421,-2.234 13.074,-4.242 4.164,-2.313 7.34,-5.41 9.523,-9.293 2.188,-3.883 3.278,-8.367 3.278,-13.457 0,-6.43 -1.633,-11.531 -4.899,-15.313 -3.265,-3.7809 -8.469,-6.6442 -15.617,-8.5973 8.023,-0.6172 14.297,-3.4336 18.82,-8.4492 4.524,-5.0117 6.789,-11.711 6.789,-20.0899 0,-6.0156 -1.273,-11.3125 -3.82,-15.8906 -2.543,-4.5742 -6.184,-8.125 -10.914,-10.6445 -3.855,-2.0547 -8.613,-3.5196 -14.27,-4.3946 -5.656,-0.875 -14.91,-1.3125 -27.765,-1.3125 h -31.856"
         style="fill:#f78d11;fill-opacity:1;fill-rule:nonzero;stroke:none"
         id="path154" />
      <path
         d="m 868.871,73.4258 c 0,6.0664 -1.617,10.875 -4.859,14.4258 -3.239,3.5468 -7.66,5.3203 -13.266,5.3203 -5.601,0 -10.016,-1.7617 -13.226,-5.2813 -3.215,-3.5234 -4.821,-8.3437 -4.821,-14.4648 0,-6.0664 1.621,-10.8477 4.86,-14.3438 3.238,-3.4961 7.636,-5.2461 13.187,-5.2461 5.606,0 10.027,1.75 13.266,5.2461 3.242,3.4961 4.859,8.2774 4.859,14.3438 z m 24.145,38.8752 V 34.3984 h -25.223 v 12.6524 c -3.602,-5.4024 -7.648,-9.3594 -12.148,-11.8789 -4.5,-2.5196 -9.782,-3.7813 -15.848,-3.7813 -10.391,0 -18.695,3.793 -24.914,11.3789 -6.223,7.5821 -9.332,17.75 -9.332,30.5039 0,12.6993 3.25,22.793 9.754,30.2736 6.504,7.48 15.261,11.223 26.265,11.223 5.86,0 10.914,-1.25 15.157,-3.743 4.242,-2.496 7.878,-6.336 10.914,-11.5309 v 12.8049 h 25.375"
         style="fill:#f78d11;fill-opacity:1;fill-rule:nonzero;stroke:none"
         id="path156" />
      <path
         d="m 909.52,0 21.906,46.2773 -31.395,66.0237 H 930.5 l 10.875,-28.1526 c 0.926,-2.3671 1.695,-4.5625 2.313,-6.5937 0.617,-2.0313 1.082,-3.9219 1.39,-5.668 0.309,1.8477 0.758,3.7656 1.348,5.7461 0.59,1.9766 1.351,4.1485 2.273,6.5156 l 11.031,28.1526 h 29.387 L 940.141,0 H 909.52"
         style="fill:#f78d11;fill-opacity:1;fill-rule:nonzero;stroke:none"
         id="path158" />
    </g>
  </g>
</svg>
